<svg width="28" height="27" viewBox="0 0 28 27" fill="none" xmlns="http://www.w3.org/2000/svg">
<g clip-path="url(#clip0_1_1182)">
<path d="M21.0438 4.81934C20.1556 4.81934 19.4297 5.53166 19.4297 6.40311C19.4297 7.27457 20.1556 7.98689 21.0438 7.98689C21.9319 7.98689 22.6578 7.27457 22.6578 6.40311C22.6578 5.53166 21.9319 4.81934 21.0438 4.81934Z" fill="black"/>
<path d="M13.8745 6.85156C10.1366 6.85156 7.10156 9.83725 7.10156 13.4974C7.10156 17.1575 10.1443 20.1432 13.8745 20.1432C17.6046 20.1432 20.6473 17.1575 20.6473 13.4974C20.6473 9.83725 17.6046 6.85156 13.8745 6.85156ZM13.8745 17.7561C11.4804 17.7561 9.53424 15.8465 9.53424 13.4974C9.53424 11.1482 11.4804 9.2386 13.8745 9.2386C16.2685 9.2386 18.2147 11.1482 18.2147 13.4974C18.2147 15.8465 16.2685 17.7561 13.8745 17.7561Z" fill="black"/>
<path d="M19.2452 27H8.26339C3.70694 27 0 23.3626 0 18.8917V8.11591C0 3.63738 3.70694 0 8.26339 0H19.2452C23.8016 0 27.5086 3.63738 27.5086 8.10834V18.8841C27.5086 23.355 23.8016 26.9924 19.2452 26.9924V27ZM8.26339 2.53859C5.13566 2.53859 2.58713 5.03929 2.58713 8.10834V18.8841C2.58713 21.9531 5.13566 24.4538 8.26339 24.4538H19.2452C22.3729 24.4538 24.9214 21.9531 24.9214 18.8841V8.10834C24.9214 5.03929 22.3729 2.53859 19.2452 2.53859H8.26339Z" fill="black"/>
</g>
<defs>
<clipPath id="clip0_1_1182">
<rect width="27.5163" height="27" fill="white"/>
</clipPath>
</defs>
</svg>
