<svg width="40" height="39" viewBox="0 0 40 39" fill="none" xmlns="http://www.w3.org/2000/svg">
<path d="M35.8388 11.6945C35.6497 11.0063 35.2788 10.3788 34.7632 9.87496C34.2475 9.37111 33.6053 9.00865 32.901 8.82394C30.9769 8.09757 12.336 7.74169 6.92787 8.84426C6.22348 9.02903 5.58122 9.39162 5.06557 9.89562C4.54993 10.3996 4.17904 11.0273 3.99014 11.7156C3.1212 15.4393 3.05551 23.4896 4.01176 27.2969C4.20078 27.9851 4.57173 28.6126 5.08737 29.1165C5.60301 29.6203 6.2452 29.9828 6.94949 30.1675C10.7603 31.0247 28.8773 31.145 32.9227 30.1675C33.627 29.9828 34.2691 29.6203 34.7848 29.1165C35.3004 28.6126 35.6714 27.9851 35.8604 27.2969C36.7867 23.2401 36.8524 15.6888 35.8388 11.6945Z" stroke="black" stroke-width="1.5" stroke-linecap="round" stroke-linejoin="round"/>
<path d="M25.4095 19.4956L16.7227 14.6279V24.3633L25.4095 19.4956Z" stroke="black" stroke-width="1.66667" stroke-linecap="round" stroke-linejoin="round"/>
</svg>
